HIERARCHY
ROOT hip
{
  OFFSET 0.00112043 5.09927 -9.65472
  CHANNELS 6 Xposition Yposition Zposition Zrotation Xrotation Yrotation
  JOINT abdomen
  {
    OFFSET 0 -1.186 -1.5018
    CHANNELS 3 Zrotation Xrotation Yrotation
    JOINT abdomen2
    {
      OFFSET 0 9.964 0.2134
      CHANNELS 3 Zrotation Xrotation Yrotation
      JOINT chest
      {
        OFFSET 0 13.134 -3.2573
        CHANNELS 3 Zrotation Xrotation Yrotation
        JOINT neck
        {
          OFFSET 0 20.686 -1.6905
          CHANNELS 3 Zrotation Xrotation Yrotation
          JOINT head
          {
            OFFSET 0 7.238 -0.1237
            CHANNELS 3 Zrotation Xrotation Yrotation
            End Site
            {
              OFFSET 0 0 0
            }
          }
        }
        JOINT lCollar
        {
          OFFSET 1.7069 20.075 5.0056
          CHANNELS 3 Zrotation Xrotation Yrotation
          JOINT lShldr
          {
            OFFSET 13.6458 -0.047 -4.849
            CHANNELS 3 Zrotation Xrotation Yrotation
            JOINT lForeArm
            {
              OFFSET 28.3255 -0.9759 2.2888
              CHANNELS 3 Zrotation Xrotation Yrotation
              JOINT lHand
              {
                OFFSET 22.1583 -0.53 10.8316
                CHANNELS 3 Zrotation Xrotation Yrotation
                JOINT lThumb1
                {
                  OFFSET 0.786 0.112 2.5817
                  CHANNELS 3 Zrotation Xrotation Yrotation
                  JOINT lThumb2
                  {
                    OFFSET 0.3601 -0.878 4.2331
                    CHANNELS 3 Zrotation Xrotation Yrotation
                    JOINT lThumb2_End
                    {
                      OFFSET 1.8127 -1.216 2.2227
                      CHANNELS 3 Zrotation Xrotation Yrotation
                      End Site
                      {
                        OFFSET 0.0181 -0.0122 0.0222
                      }
                    }
                  }
                }
                JOINT lCarpal1
                {
                  OFFSET 0.9571 1.114 1.7695
                  CHANNELS 3 Zrotation Xrotation Yrotation
                  JOINT lIndex1
                  {
                    OFFSET 4.1246 0.487 4.1451
                    CHANNELS 3 Zrotation Xrotation Yrotation
                    JOINT lIndex2
                    {
                      OFFSET 3.4052 -1.454 2.7682
                      CHANNELS 3 Zrotation Xrotation Yrotation
                      JOINT lIndex2_End
                      {
                        OFFSET 1.4531 -1.795 1.2713
                        CHANNELS 3 Zrotation Xrotation Yrotation
                        End Site
                        {
                          OFFSET 0.0145 -0.0179 0.0127
                        }
                      }
                    }
                  }
                  JOINT lMid1
                  {
                    OFFSET 5.6954 0.21 2.1184
                    CHANNELS 3 Zrotation Xrotation Yrotation
                    JOINT lMid2
                    {
                      OFFSET 3.9766 -1.54 2.3863
                      CHANNELS 3 Zrotation Xrotation Yrotation
                      JOINT lMid2_End
                      {
                        OFFSET 1.4042 -1.926 1.125
                        CHANNELS 3 Zrotation Xrotation Yrotation
                        End Site
                        {
                          OFFSET 0.014 -0.0193 0.0113
                        }
                      }
                    }
                  }
                }
                JOINT lCarpal2
                {
                  OFFSET 2.0956 0.66 -0.3894
                  CHANNELS 3 Zrotation Xrotation Yrotation
                  JOINT lRing1
                  {
                    OFFSET 5.0395 -0.09 2.4971
                    CHANNELS 3 Zrotation Xrotation Yrotation
                    JOINT lRing2
                    {
                      OFFSET 3.7921 -1.552 1.4806
                      CHANNELS 3 Zrotation Xrotation Yrotation
                      JOINT lRing2_End
                      {
                        OFFSET 1.4655 -1.808 0.9609
                        CHANNELS 3 Zrotation Xrotation Yrotation
                        End Site
                        {
                          OFFSET 0.0147 -0.0181 0.0096
                        }
                      }
                    }
                  }
                  JOINT lPinky1
                  {
                    OFFSET 4.9141 -1.269 0.3591
                    CHANNELS 3 Zrotation Xrotation Yrotation
                    JOINT lPinky2
                    {
                      OFFSET 3.1477 -1.685 0.8462
                      CHANNELS 3 Zrotation Xrotation Yrotation
                      JOINT lPinky2_End
                      {
                        OFFSET 0.8055 -1.585 0.7955
                        CHANNELS 3 Zrotation Xrotation Yrotation
                        End Site
                        {
                          OFFSET 0.0081 -0.0158 0.008
                        }
                      }
                    }
                  }
                }
              }
            }
          }
        }
        JOINT rCollar
        {
          OFFSET -1.7069 20.075 5.0056
          CHANNELS 3 Zrotation Xrotation Yrotation
          JOINT rShldr
          {
            OFFSET -13.6458 -0.047 -4.849
            CHANNELS 3 Zrotation Xrotation Yrotation
            JOINT rForeArm
            {
              OFFSET -28.3255 -0.9759 2.2888
              CHANNELS 3 Zrotation Xrotation Yrotation
              JOINT rHand
              {
                OFFSET -22.1583 -0.53 10.8316
                CHANNELS 3 Zrotation Xrotation Yrotation
                JOINT rThumb1
                {
                  OFFSET -0.786 0.112 2.5817
                  CHANNELS 3 Zrotation Xrotation Yrotation
                  JOINT rThumb2
                  {
                    OFFSET -0.3601 -0.878 4.2331
                    CHANNELS 3 Zrotation Xrotation Yrotation
                    JOINT rThumb2_End
                    {
                      OFFSET -1.8127 -1.216 2.2227
                      CHANNELS 3 Zrotation Xrotation Yrotation
                      End Site
                      {
                        OFFSET -0.0181 -0.0122 0.0222
                      }
                    }
                  }
                }
                JOINT rCarpal1
                {
                  OFFSET -0.9571 1.114 1.7695
                  CHANNELS 3 Zrotation Xrotation Yrotation
                  JOINT rIndex1
                  {
                    OFFSET -4.1246 0.487 4.1451
                    CHANNELS 3 Zrotation Xrotation Yrotation
                    JOINT rIndex2
                    {
                      OFFSET -3.4052 -1.454 2.7682
                      CHANNELS 3 Zrotation Xrotation Yrotation
                      JOINT rIndex2_End
                      {
                        OFFSET -1.4531 -1.795 1.2713
                        CHANNELS 3 Zrotation Xrotation Yrotation
                        End Site
                        {
                          OFFSET -0.0145 -0.018 0.0127
                        }
                      }
                    }
                  }
                  JOINT rMid1
                  {
                    OFFSET -5.6954 0.21 2.1184
                    CHANNELS 3 Zrotation Xrotation Yrotation
                    JOINT rMid2
                    {
                      OFFSET -3.9766 -1.54 2.3863
                      CHANNELS 3 Zrotation Xrotation Yrotation
                      JOINT rMid2_End
                      {
                        OFFSET -1.4042 -1.926 1.125
                        CHANNELS 3 Zrotation Xrotation Yrotation
                        End Site
                        {
                          OFFSET -0.014 -0.0193 0.0113
                        }
                      }
                    }
                  }
                }
                JOINT rCarpal2
                {
                  OFFSET -2.0956 0.66 -0.3894
                  CHANNELS 3 Zrotation Xrotation Yrotation
                  JOINT rRing1
                  {
                    OFFSET -5.0395 -0.09 2.4971
                    CHANNELS 3 Zrotation Xrotation Yrotation
                    JOINT rRing2
                    {
                      OFFSET -3.7921 -1.552 1.4806
                      CHANNELS 3 Zrotation Xrotation Yrotation
                      JOINT rRing2_End
                      {
                        OFFSET -1.4655 -1.808 0.9609
                        CHANNELS 3 Zrotation Xrotation Yrotation
                        End Site
                        {
                          OFFSET -0.0147 -0.0181 0.0096
                        }
                      }
                    }
                  }
                  JOINT rPinky1
                  {
                    OFFSET -4.9141 -1.269 0.3592
                    CHANNELS 3 Zrotation Xrotation Yrotation
                    JOINT rPinky2
                    {
                      OFFSET -3.1477 -1.685 0.8462
                      CHANNELS 3 Zrotation Xrotation Yrotation
                      JOINT rPinky2_End
                      {
                        OFFSET -0.8055 -1.585 0.7955
                        CHANNELS 3 Zrotation Xrotation Yrotation
                        End Site
                        {
                          OFFSET -0.0081 -0.0158 0.008
                        }
                      }
                    }
                  }
                }
              }
            }
          }
        }
      }
    }
  }
  JOINT lThigh
  {
    OFFSET 8.367 -8.2066 0.5982
    CHANNELS 3 Zrotation Xrotation Yrotation
    JOINT lShin
    {
      OFFSET 2.1923 -43.463 -0.4932
      CHANNELS 3 Zrotation Xrotation Yrotation
      JOINT lFoot
      {
        OFFSET 0.7333 -45.8593 -2.6451
        CHANNELS 3 Zrotation Xrotation Yrotation
        End Site
        {
          OFFSET 2.6618 -4.2699 12.3931
        }
      }
    }
  }
  JOINT rThigh
  {
    OFFSET -8.367 -8.2066 0.5982
    CHANNELS 3 Zrotation Xrotation Yrotation
    JOINT rShin
    {
      OFFSET -2.1923 -43.463 -0.4931
      CHANNELS 3 Zrotation Xrotation Yrotation
      JOINT rFoot
      {
        OFFSET -0.7333 -45.8593 -2.6451
        CHANNELS 3 Zrotation Xrotation Yrotation
        End Site
        {
          OFFSET -2.6618 -4.2699 12.3931
        }
      }
    }
  }
}
MOTION
Frames:	5
Frame Time:	0.0333333
0 91.7903 2.51682 0 0 -0 0 0 -0 0 0 -0 0 0 -0 0 0 -0 0 0 -0 0 0 -0 1.66051 0.0835086 5.75766 -0.0175111 0.895433 15.7816 7.95139e-016 -1.98785e-016 -0 5.46658e-016 -3.97569e-016 -0 5.96354e-016 0 -0 3.97569e-016 1.98785e-016 9.54166e-015 1.49089e-016 -3.97569e-016 -0 6.4605e-016 0 3.18055e-015 5.96354e-016 0 3.18055e-015 8.94531e-016 -1.98785e-016 6.36111e-015 6.4605e-016 0 3.18055e-015 5.96354e-016 0 3.18055e-015 8.94531e-016 -1.98785e-016 6.36111e-015 1.49089e-016 -3.97569e-016 -0 6.4605e-016 0 3.18055e-015 5.96354e-016 0 3.18055e-015 8.94531e-016 -1.98785e-016 6.36111e-015 6.4605e-016 0 3.18055e-015 5.96354e-016 0 3.18055e-015 8.94531e-016 -1.98785e-016 6.36111e-015 0 0 -0 -1.4496 0.0636048 -5.0245 -1.74811 1.20616 -16.8394 -1.19271e-015 1.98785e-016 -3.18055e-015 -3.97569e-016 1.98785e-016 -3.18055e-015 -2.98177e-016 1.98785e-016 -3.18055e-015 -2.98177e-016 3.97569e-016 -0 4.96962e-016 0 -6.36111e-015 -9.93923e-017 3.97569e-016 -0 -8.94531e-016 5.96354e-016 -0 -3.97569e-016 3.97569e-016 -0 -9.93923e-017 3.97569e-016 -0 -8.94531e-016 5.96354e-016 -0 -3.97569e-016 3.97569e-016 -0 4.96962e-016 0 -6.36111e-015 -9.93923e-017 3.97569e-016 -0 -8.94531e-016 5.96354e-016 -0 -3.97569e-016 3.97569e-016 -0 -9.93923e-017 3.97569e-016 -0 -8.94531e-016 5.96354e-016 -0 -3.97569e-016 3.97569e-016 -0 -4.66111 -0.998717 0.12318 0.00986924 1.54847 0.176523 4.65186 -0.572283 -0.254274 4.66111 -0.998765 -0.123176 -0.00986867 1.54869 -0.176537 -4.65186 -0.572453 0.25427 
0.793694 17.7082 42.8069 -10.2012 36.7695 -163.268 -0.360213 16.3214 -0.0225831 -0.763219 32.6427 0.0718973 -0.763214 32.6427 0.0718965 -0.000104757 16.97 2.43803e-005 -1.94636e-006 11.6648 5.89291e-008 14.946 2.84113 -23.3017 -56.9687 5.91339 -28.2905 -7.1601 2.51675 17.1754 -6.92733 -11.8487 -24.5877 -1.59028e-015 0 -4.77083e-015 4.0906e-007 1.08812e-006 -1.24136e-006 7.95139e-016 -3.18055e-015 -3.18055e-015 -2.38542e-015 3.18055e-015 -3.18055e-015 -3.18055e-015 -3.18055e-015 3.18055e-015 4.0906e-007 1.08812e-006 -1.24136e-006 3.18055e-015 0 1.59028e-015 -3.18055e-015 -3.18055e-015 3.18055e-015 4.0906e-007 1.08812e-006 -1.24136e-006 3.18055e-015 0 1.59028e-015 -2.38542e-015 3.18055e-015 -3.18055e-015 -3.18055e-015 -3.18055e-015 3.18055e-015 4.0906e-007 1.08812e-006 -1.24136e-006 3.18055e-015 0 1.59028e-015 -3.18055e-015 -3.18055e-015 3.18055e-015 4.0906e-007 1.08812e-006 -1.24136e-006 3.18055e-015 0 1.59028e-015 -13.7994 4.23863 24.2878 56.3451 5.56821 28.4743 4.9821 2.73936 -18.4091 8.29724 -14.0333 25.3344 -2.78299e-015 6.36111e-015 -7.95139e-016 -4.37326e-015 3.18055e-015 1.59028e-015 -1.98785e-015 0 2.38542e-015 -1.98785e-015 6.36111e-015 -1.19271e-015 -9.93923e-015 0 4.77083e-015 -2.38542e-015 -3.18055e-015 1.59028e-015 -1.98785e-015 9.54166e-015 2.38542e-015 -9.93923e-015 0 4.77083e-015 -2.38542e-015 -3.18055e-015 1.59028e-015 -1.98785e-015 9.54166e-015 2.38542e-015 -1.98785e-015 6.36111e-015 -1.19271e-015 -9.93923e-015 0 4.77083e-015 -2.38542e-015 -3.18055e-015 1.59028e-015 -1.98785e-015 9.54166e-015 2.38542e-015 -9.93923e-015 0 4.77083e-015 -2.38542e-015 -3.18055e-015 1.59028e-015 -1.98785e-015 9.54166e-015 2.38542e-015 50.5568 -37.1963 91.2555 6.1245 37.132 -61.3635 8.26567 39.7145 39.9581 -50.5873 -37.1913 -91.2868 -6.15477 37.13 61.3887 -8.28079 39.7206 -39.9695 
-0.833867 22.5279 39.6937 -1.23798e-014 37.3918 -180 -0.343695 14.9901 0.00159661 -0.727452 29.9797 0.106004 -0.727452 29.9798 0.106005 -1.37624e-005 14.6315 3.97041e-006 -3.22375e-007 10.0376 1.57404e-007 13.3538 3.80799 -21.5348 -53.169 5.67191 -25.9241 -6.66601 2.40504 17.0764 -6.67415 -9.84036 -21.4362 6.04588e-007 -2.56088e-006 -1.91118e-006 -1.59028e-015 -3.18055e-015 3.97569e-016 6.04588e-007 -2.56088e-006 -1.91118e-006 -1.98785e-015 -6.36111e-015 -3.97569e-015 6.04588e-007 -2.56088e-006 -1.91118e-006 -2.78299e-015 0 2.78299e-015 6.04588e-007 -2.56088e-006 -1.91118e-006 6.04588e-007 -2.56088e-006 -1.91118e-006 -2.78299e-015 0 2.78299e-015 6.04588e-007 -2.56088e-006 -1.91118e-006 -1.98785e-015 -6.36111e-015 -3.97569e-015 6.04588e-007 -2.56088e-006 -1.91118e-006 -2.78299e-015 0 2.78299e-015 6.04588e-007 -2.56088e-006 -1.91118e-006 6.04588e-007 -2.56088e-006 -1.91118e-006 -2.78299e-015 0 2.78299e-015 6.04588e-007 -2.56088e-006 -1.91118e-006 -12.338 5.02457 22.3614 52.5841 5.33351 26.1478 4.51624 2.63362 -18.2985 7.75792 -11.7864 22.0349 -4.77083e-015 3.18055e-015 2.38542e-015 5.40397e-007 2.6465e-006 -1.82429e-006 -3.97569e-016 6.36111e-015 7.95139e-015 -3.57812e-015 -6.36111e-015 1.19271e-015 -7.15625e-015 0 5.1684e-015 5.40397e-007 2.6465e-006 -1.82429e-006 2.38542e-015 3.18055e-015 5.56597e-015 -7.15625e-015 0 5.1684e-015 5.40397e-007 2.6465e-006 -1.82429e-006 2.38542e-015 3.18055e-015 5.56597e-015 -3.57812e-015 -6.36111e-015 1.19271e-015 -7.15625e-015 0 5.1684e-015 5.40397e-007 2.6465e-006 -1.82429e-006 2.38542e-015 3.18055e-015 5.56597e-015 -7.15625e-015 0 5.1684e-015 5.40397e-007 2.6465e-006 -1.82429e-006 2.38542e-015 3.18055e-015 5.56597e-015 45.8035 -39.1375 86.2277 3.67565 39.1912 -56.1647 10.6568 37.4558 35.3167 -45.8319 -39.1364 -86.2588 -3.70283 39.1913 56.1877 -10.6705 37.4616 -35.3265 
-0.833779 22.5259 39.366 -1.27623e-014 39.3122 -180 -0.34402 14.7975 0.00200496 -0.727122 29.5947 0.10528 -0.727121 29.5947 0.10528 -3.20789e-005 13.534 6.0526e-006 1.96499e-007 9.26599 7.27507e-008 12.8944 4.86683 -21.3788 -53.169 5.67192 -25.9241 -6.66601 2.40504 17.0764 -7.19045 -8.4792 -20.1437 4.37326e-015 3.18055e-015 -3.57812e-015 4.77083e-015 0 -1.98785e-015 1.98785e-015 -3.18055e-015 -2.38542e-015 3.18055e-015 9.54166e-015 -2.38542e-015 -1.59028e-015 -9.54166e-015 1.98785e-015 1.98785e-015 -9.54166e-015 -7.95139e-016 3.57812e-015 0 1.19271e-015 -1.59028e-015 -9.54166e-015 1.98785e-015 1.98785e-015 -9.54166e-015 -7.95139e-016 3.57812e-015 0 1.19271e-015 3.18055e-015 9.54166e-015 -2.38542e-015 -1.59028e-015 -9.54166e-015 1.98785e-015 1.98785e-015 -9.54166e-015 -7.95139e-016 3.57812e-015 0 1.19271e-015 -1.59028e-015 -9.54166e-015 1.98785e-015 1.98785e-015 -9.54166e-015 -7.95139e-016 3.57812e-015 0 1.19271e-015 -11.9652 5.98554 22.1261 52.5841 5.33351 26.1478 4.51624 2.63362 -18.2985 8.15847 -10.2821 20.6922 6.36111e-015 -3.18055e-015 2.78299e-015 6.36111e-015 3.18055e-015 1.59028e-015 5.96354e-015 -3.18055e-015 1.19271e-015 7.15625e-015 -3.18055e-015 1.98785e-015 5.1684e-015 6.36111e-015 4.37326e-015 1.59028e-015 0 -7.95139e-016 2.78299e-015 3.18055e-015 -2.78299e-015 5.1684e-015 6.36111e-015 4.37326e-015 1.59028e-015 0 -7.95139e-016 2.78299e-015 3.18055e-015 -2.78299e-015 7.15625e-015 -3.18055e-015 1.98785e-015 5.1684e-015 6.36111e-015 4.37326e-015 1.59028e-015 0 -7.95139e-016 2.78299e-015 3.18055e-015 -2.78299e-015 5.1684e-015 6.36111e-015 4.37326e-015 1.59028e-015 0 -7.95139e-016 2.78299e-015 3.18055e-015 -2.78299e-015 45.678 -37.5147 85.6137 4.17935 40.3423 -56.4353 11.5851 36.8787 34.4377 -45.7036 -37.5134 -85.642 -4.20497 40.3419 56.4566 -11.5979 36.8842 -34.4469 
-0.833683 22.5185 39.0359 -1.31675e-014 41.2375 -180 -0.34436 14.6049 0.00239956 -0.726833 29.2095 0.10454 -0.726833 29.2095 0.10454 -2.75709e-005 12.4304 5.39558e-006 -5.20406e-008 8.49274 -1.60201e-007 12.4309 5.92534 -21.2138 -53.169 5.67189 -25.9241 -6.66601 2.40504 17.0764 -7.73742 -7.12621 -18.8394 1.36799e-006 -2.25491e-007 2.46957e-007 -6.01993e-007 2.55852e-006 1.91472e-006 -3.97569e-016 -1.27222e-014 -9.14409e-015 -3.57812e-015 0 -0 1.36799e-006 -2.25491e-007 2.46957e-007 -6.01993e-007 2.55852e-006 1.91472e-006 -2.38542e-015 -9.54166e-015 -6.75868e-015 1.36799e-006 -2.25491e-007 2.46957e-007 -6.01993e-007 2.55852e-006 1.91472e-006 -2.38542e-015 -9.54166e-015 -6.75868e-015 -3.57812e-015 0 -0 1.36799e-006 -2.25491e-007 2.46957e-007 -6.01993e-007 2.55852e-006 1.91472e-006 -2.38542e-015 -9.54166e-015 -6.75868e-015 1.36799e-006 -2.25491e-007 2.46957e-007 -6.01993e-007 2.55852e-006 1.91472e-006 -2.38542e-015 -9.54166e-015 -6.75868e-015 -11.5874 6.94567 21.8838 52.5841 5.33351 26.1478 4.51623 2.63363 -18.2985 8.59418 -8.7829 19.3406 0 0 -1.98785e-015 5.37264e-007 2.64812e-006 -1.82237e-006 -3.97569e-015 6.36111e-015 -7.95139e-016 -7.95139e-016 0 -1.59028e-015 7.95139e-016 -3.18055e-015 5.1684e-015 5.37264e-007 2.64812e-006 -1.82237e-006 -1.11319e-014 6.36111e-015 -3.18055e-015 7.95139e-016 -3.18055e-015 5.1684e-015 5.37264e-007 2.64812e-006 -1.82237e-006 -1.11319e-014 6.36111e-015 -3.18055e-015 -7.95139e-016 0 -1.59028e-015 7.95139e-016 -3.18055e-015 5.1684e-015 5.37264e-007 2.64812e-006 -1.82237e-006 -1.11319e-014 6.36111e-015 -3.18055e-015 7.95139e-016 -3.18055e-015 5.1684e-015 5.37264e-007 2.64812e-006 -1.82237e-006 -1.11319e-014 6.36111e-015 -3.18055e-015 45.5806 -35.8863 85.0171 4.70318 41.4919 -56.727 12.4923 36.2893 33.5777 -45.6036 -35.885 -85.0427 -4.7272 41.4912 56.7466 -12.5044 36.2944 -33.5863 
